<?xml version="1.0" encoding="UTF-8" standalone="no"?>
<!-- Created with Inkscape (http://www.inkscape.org/) -->

<svg
   xmlns:dc="http://purl.org/dc/elements/1.1/"
   xmlns:cc="http://creativecommons.org/ns#"
   xmlns:rdf="http://www.w3.org/1999/02/22-rdf-syntax-ns#"
   xmlns:svg="http://www.w3.org/2000/svg"
   xmlns="http://www.w3.org/2000/svg"
   xmlns:sodipodi="http://sodipodi.sourceforge.net/DTD/sodipodi-0.dtd"
   xmlns:inkscape="http://www.inkscape.org/namespaces/inkscape"
   width="16"
   height="16"
   id="svg2"
   sodipodi:version="0.32"
   inkscape:version="0.91 r13725"
   version="1.0"
   sodipodi:docname="all.svg"
   inkscape:output_extension="org.inkscape.output.svg.inkscape"
   inkscape:export-filename="/home/mcv/tmp/svn/haruhi/images/all.png"
   inkscape:export-xdpi="90"
   inkscape:export-ydpi="90">
  <defs
     id="defs4">
    <inkscape:perspective
       sodipodi:type="inkscape:persp3d"
       inkscape:vp_x="0 : 526.18109 : 1"
       inkscape:vp_y="0 : 1000 : 0"
       inkscape:vp_z="744.09448 : 526.18109 : 1"
       inkscape:persp3d-origin="372.04724 : 350.78739 : 1"
       id="perspective10" />
  </defs>
  <sodipodi:namedview
     id="base"
     pagecolor="#ffffff"
     bordercolor="#666666"
     borderopacity="1.0"
     gridtolerance="10000"
     guidetolerance="10"
     objecttolerance="10"
     inkscape:pageopacity="0.0"
     inkscape:pageshadow="2"
     inkscape:zoom="22.627417"
     inkscape:cx="-11.711367"
     inkscape:cy="3.5745618"
     inkscape:document-units="px"
     inkscape:current-layer="layer1"
     showgrid="true"
     inkscape:window-width="2560"
     inkscape:window-height="1346"
     inkscape:window-x="0"
     inkscape:window-y="0"
     inkscape:window-maximized="1">
    <inkscape:grid
       type="xygrid"
       id="grid2383"
       visible="true"
       enabled="true"
       spacingx="0.5px"
       spacingy="0.5px"
       originx="0px" />
  </sodipodi:namedview>
  <metadata
     id="metadata7">
    <rdf:RDF>
      <cc:Work
         rdf:about="">
        <dc:format>image/svg+xml</dc:format>
        <dc:type
           rdf:resource="http://purl.org/dc/dcmitype/StillImage" />
      </cc:Work>
    </rdf:RDF>
  </metadata>
  <g
     inkscape:label="Layer 1"
     inkscape:groupmode="layer"
     id="layer1">
    <path
       sodipodi:type="arc"
       style="fill:#ff0000;fill-opacity:1;stroke:none;stroke-width:0.80000000999999998;stroke-linecap:round;stroke-linejoin:round;stroke-miterlimit:4;stroke-dasharray:none;stroke-dashoffset:0;stroke-opacity:1"
       id="path3198"
       sodipodi:cx="5.75"
       sodipodi:cy="7.25"
       sodipodi:rx="0.75"
       sodipodi:ry="0.75"
       d="M 6.5,7.25 A 0.75,0.75 0 1 1 5,7.25 A 0.75,0.75 0 1 1 6.5,7.25 z"
       transform="matrix(1.3252998,0.2137983,-0.2137983,1.3252998,2.726916,-7.7937921)" />
    <path
       transform="matrix(1.3252998,0.2137983,-0.2137983,1.3252998,4.2609213,1.5769462)"
       d="M 6.5,7.25 A 0.75,0.75 0 1 1 5,7.25 A 0.75,0.75 0 1 1 6.5,7.25 z"
       sodipodi:ry="0.75"
       sodipodi:rx="0.75"
       sodipodi:cy="7.25"
       sodipodi:cx="5.75"
       id="path2416"
       style="fill:#00ff5a;fill-opacity:1;stroke:none;stroke-width:0.80000000999999998;stroke-linecap:round;stroke-linejoin:round;stroke-miterlimit:4;stroke-dasharray:none;stroke-dashoffset:0;stroke-opacity:1"
       sodipodi:type="arc" />
    <path
       sodipodi:type="arc"
       style="fill:#ff00b4;fill-opacity:1;stroke:none;stroke-width:0.80000000999999998;stroke-linecap:round;stroke-linejoin:round;stroke-miterlimit:4;stroke-dasharray:none;stroke-dashoffset:0;stroke-opacity:1"
       id="path2418"
       sodipodi:cx="5.75"
       sodipodi:cy="7.25"
       sodipodi:rx="0.75"
       sodipodi:ry="0.75"
       d="M 6.5,7.25 A 0.75,0.75 0 1 1 5,7.25 A 0.75,0.75 0 1 1 6.5,7.25 z"
       transform="matrix(1.3252998,0.2137983,-0.2137983,1.3252998,-0.3884035,-7.2765152)" />
    <path
       transform="matrix(1.3252998,0.2137983,-0.2137983,1.3252998,-2.766682,-5.1347732)"
       d="M 6.5,7.25 A 0.75,0.75 0 1 1 5,7.25 A 0.75,0.75 0 1 1 6.5,7.25 z"
       sodipodi:ry="0.75"
       sodipodi:rx="0.75"
       sodipodi:cy="7.25"
       sodipodi:cx="5.75"
       id="path2420"
       style="fill:#b400ff;fill-opacity:1;stroke:none;stroke-width:0.80000000999999998;stroke-linecap:round;stroke-linejoin:round;stroke-miterlimit:4;stroke-dasharray:none;stroke-dashoffset:0;stroke-opacity:1"
       sodipodi:type="arc" />
    <path
       sodipodi:type="arc"
       style="fill:#00fff0;fill-opacity:1;stroke:none;stroke-width:0.80000000999999998;stroke-linecap:round;stroke-linejoin:round;stroke-miterlimit:4;stroke-dasharray:none;stroke-dashoffset:0;stroke-opacity:1"
       id="path2422"
       sodipodi:cx="5.75"
       sodipodi:cy="7.25"
       sodipodi:rx="0.75"
       sodipodi:ry="0.75"
       d="M 6.5,7.25 A 0.75,0.75 0 1 1 5,7.25 A 0.75,0.75 0 1 1 6.5,7.25 z"
       transform="matrix(1.3252998,0.2137983,-0.2137983,1.3252998,1.1321249,2.0920488)" />
    <path
       transform="matrix(1.3252998,0.2137983,-0.2137983,1.3252998,-1.6703226,0.6270273)"
       d="M 6.5,7.25 A 0.75,0.75 0 1 1 5,7.25 A 0.75,0.75 0 1 1 6.5,7.25 z"
       sodipodi:ry="0.75"
       sodipodi:rx="0.75"
       sodipodi:cy="7.25"
       sodipodi:cx="5.75"
       id="path2424"
       style="fill:#0078ff;fill-opacity:1;stroke:none;stroke-width:0.80000000999999998;stroke-linecap:round;stroke-linejoin:round;stroke-miterlimit:4;stroke-dasharray:none;stroke-dashoffset:0;stroke-opacity:1"
       sodipodi:type="arc" />
    <path
       sodipodi:type="arc"
       style="fill:#1e00ff;fill-opacity:1;stroke:none;stroke-width:0.80000000999999998;stroke-linecap:round;stroke-linejoin:round;stroke-miterlimit:4;stroke-dasharray:none;stroke-dashoffset:0;stroke-opacity:1"
       id="path2426"
       sodipodi:cx="5.75"
       sodipodi:cy="7.25"
       sodipodi:rx="0.75"
       sodipodi:ry="0.75"
       d="M 6.5,7.25 A 0.75,0.75 0 1 1 5,7.25 A 0.75,0.75 0 1 1 6.5,7.25 z"
       transform="matrix(1.3252998,0.2137983,-0.2137983,1.3252998,-3.2522926,-2.1674125)" />
    <path
       sodipodi:type="arc"
       style="fill:#a9ff22;fill-opacity:1;stroke:none;stroke-width:0.80000001;stroke-linecap:round;stroke-linejoin:round;stroke-miterlimit:4;stroke-dasharray:none;stroke-dashoffset:0;stroke-opacity:1"
       id="path2428"
       sodipodi:cx="5.75"
       sodipodi:cy="7.25"
       sodipodi:rx="0.75"
       sodipodi:ry="0.75"
       d="M 6.5,7.25 A 0.75,0.75 0 1 1 5,7.25 A 0.75,0.75 0 1 1 6.5,7.25 z"
       transform="matrix(1.3252998,0.2137983,-0.2137983,1.3252998,6.6257228,-0.5669701)" />
    <path
       transform="matrix(1.3252998,0.2137983,-0.2137983,1.3252998,7.1035079,-3.5286793)"
       d="M 6.5,7.25 A 0.75,0.75 0 1 1 5,7.25 A 0.75,0.75 0 1 1 6.5,7.25 z"
       sodipodi:ry="0.75"
       sodipodi:rx="0.75"
       sodipodi:cy="7.25"
       sodipodi:cx="5.75"
       id="path2430"
       style="fill:#ffe400;fill-opacity:1;stroke:none;stroke-width:0.80000001;stroke-linecap:round;stroke-linejoin:round;stroke-miterlimit:4;stroke-dasharray:none;stroke-dashoffset:0;stroke-opacity:1"
       sodipodi:type="arc" />
    <path
       sodipodi:type="arc"
       style="fill:#ff9600;fill-opacity:1;stroke:none;stroke-width:0.80000000999999998;stroke-linecap:round;stroke-linejoin:round;stroke-miterlimit:4;stroke-dasharray:none;stroke-dashoffset:0;stroke-opacity:1"
       id="path2432"
       sodipodi:cx="5.75"
       sodipodi:cy="7.25"
       sodipodi:rx="0.75"
       sodipodi:ry="0.75"
       d="M 6.5,7.25 A 0.75,0.75 0 1 1 5,7.25 A 0.75,0.75 0 1 1 6.5,7.25 z"
       transform="matrix(1.3252998,0.2137983,-0.2137983,1.3252998,5.5350149,-6.320945)" />
  </g>
</svg>
