<?xml version="1.0" encoding="UTF-8" standalone="no"?>
<!-- Created with Inkscape (http://www.inkscape.org/) -->

<svg
   xmlns:dc="http://purl.org/dc/elements/1.1/"
   xmlns:cc="http://creativecommons.org/ns#"
   xmlns:rdf="http://www.w3.org/1999/02/22-rdf-syntax-ns#"
   xmlns:svg="http://www.w3.org/2000/svg"
   xmlns="http://www.w3.org/2000/svg"
   xmlns:sodipodi="http://sodipodi.sourceforge.net/DTD/sodipodi-0.dtd"
   xmlns:inkscape="http://www.inkscape.org/namespaces/inkscape"
   width="16"
   height="16"
   id="svg2"
   version="1.1"
   inkscape:version="0.91 r13725"
   viewBox="0 0 16 16"
   sodipodi:docname="preset-favorite.svg">
  <defs
     id="defs4">
    <style
       type="text/css"
       id="current-color-scheme">
      .ColorScheme-Text {
        color:#4d4d4d;
      }
      .ColorScheme-Background {
        color:#eff0f1;
      }
      .ColorScheme-Highlight {
        color:#3daee9;
      }
      .ColorScheme-ViewText {
        color:#31363b;
      }
      .ColorScheme-ViewBackground {
        color:#fcfcfc;
      }
      .ColorScheme-ViewHover {
        color:#93cee9;
      }
      .ColorScheme-ViewFocus{
        color:#3daee9;
      }
      .ColorScheme-ButtonText {
        color:#31363b;
      }
      .ColorScheme-ButtonBackground {
        color:#eff0f1;
      }
      .ColorScheme-ButtonHover {
        color:#93cee9;
      }
      .ColorScheme-ButtonFocus{
        color:#3daee9;
      }
      </style>
  </defs>
  <sodipodi:namedview
     id="base"
     pagecolor="#ffffff"
     bordercolor="#666666"
     borderopacity="1.0"
     inkscape:pageopacity="0.0"
     inkscape:pageshadow="2"
     inkscape:zoom="67.564053"
     inkscape:cx="7.3353549"
     inkscape:cy="7.3973759"
     inkscape:document-units="px"
     inkscape:current-layer="layer1"
     showgrid="true"
     inkscape:showpageshadow="false"
     borderlayer="true"
     units="px"
     inkscape:window-width="3840"
     inkscape:window-height="2112"
     inkscape:window-x="0"
     inkscape:window-y="0"
     inkscape:window-maximized="1"
     showguides="true">
    <inkscape:grid
       type="xygrid"
       id="grid4062" />
    <sodipodi:guide
       position="2,14.000017"
       orientation="12,0"
       id="guide4066" />
    <sodipodi:guide
       position="2,2.0000174"
       orientation="0,12"
       id="guide4068" />
    <sodipodi:guide
       position="14,2.0000174"
       orientation="-12,0"
       id="guide4070" />
    <sodipodi:guide
       position="14,14.000017"
       orientation="0,-12"
       id="guide4072" />
  </sodipodi:namedview>
  <metadata
     id="metadata7">
    <rdf:RDF>
      <cc:Work
         rdf:about="">
        <dc:format>image/svg+xml</dc:format>
        <dc:type
           rdf:resource="http://purl.org/dc/dcmitype/StillImage" />
        <dc:title></dc:title>
      </cc:Work>
    </rdf:RDF>
  </metadata>
  <g
     inkscape:label="Capa 1"
     inkscape:groupmode="layer"
     id="layer1"
     transform="translate(0,-1036.3622)">
    <path
       style="fill:currentColor;fill-opacity:1;stroke:none"
       d="M 5 2 L 5 4 L 5 10.275391 C 4.705 10.104292 4.3669285 10 4 10 C 2.8920048 10 2 10.892005 2 12 C 2 13.107995 2.8920048 14 4 14 C 5.1079952 14 6 13.107995 6 12 L 6 6 L 13 6 L 13 8.2753906 C 12.705 8.1042919 12.366929 8 12 8 C 10.892005 8 10 8.8920048 10 10 C 10 11.107995 10.892005 12 12 12 C 13.107995 12 14 11.107995 14 10 L 14 2 L 5 2 z M 6 4 L 13 4 L 13 5 L 6 5 L 6 4 z "
       id="rect4141"
       class="ColorScheme-Text"
       transform="translate(0,1036.3622)" />
    <path
       sodipodi:nodetypes="sscsscs"
       inkscape:connector-curvature="0"
       style="fill:#ffffff;fill-opacity:1;stroke:none;stroke-width:3.700001;stroke-miterlimit:4"
       d="m 13.874619,1036.7908 c 0.967329,0 1.752393,0.7851 1.752393,1.7523 0,1.9679 -1.67196,3.0549 -3.337746,4.4294 -1.610399,-1.3994 -3.3377512,-2.5242 -3.3377512,-4.4294 0,-0.9672 0.785065,-1.7523 1.7523932,-1.7523 0.70165,0 1.30556,0.4142 1.585358,1.0104 0.279799,-0.5962 0.883703,-1.0104 1.585353,-1.0104 z"
       id="path4208"
       stroke-miterlimit="4" />
    <path
       stroke-miterlimit="4"
       id="path7"
       d="m 13.587802,1037.2316 c 0.792324,0 1.435357,0.643 1.435357,1.4353 0,1.6119 -1.369475,2.5022 -2.733893,3.628 -1.319052,-1.1462 -2.7338979,-2.0675 -2.7338979,-3.628 0,-0.7923 0.6430339,-1.4353 1.4353569,-1.4353 0.57471,0 1.069362,0.3393 1.298541,0.8276 0.229179,-0.4883 0.723826,-0.8276 1.298536,-0.8276 z"
       style="fill:#e60000;stroke:none;stroke-width:3.700001;stroke-miterlimit:4"
       inkscape:connector-curvature="0"
       sodipodi:nodetypes="sscsscs" />
  </g>
</svg>
