<?xml version="1.0" encoding="UTF-8" standalone="no"?>
<!-- Created with Inkscape (http://www.inkscape.org/) -->

<svg
   xmlns:dc="http://purl.org/dc/elements/1.1/"
   xmlns:cc="http://creativecommons.org/ns#"
   xmlns:rdf="http://www.w3.org/1999/02/22-rdf-syntax-ns#"
   xmlns:svg="http://www.w3.org/2000/svg"
   xmlns="http://www.w3.org/2000/svg"
   xmlns:sodipodi="http://sodipodi.sourceforge.net/DTD/sodipodi-0.dtd"
   xmlns:inkscape="http://www.inkscape.org/namespaces/inkscape"
   width="16"
   height="16"
   id="svg2"
   version="1.1"
   inkscape:version="0.47 r22583"
   sodipodi:docname="connections.svg"
   inkscape:export-filename="/home/mcv/tmp/svn/haruhi/images/connections.png"
   inkscape:export-xdpi="90"
   inkscape:export-ydpi="90">
  <defs
     id="defs4">
    <inkscape:perspective
       sodipodi:type="inkscape:persp3d"
       inkscape:vp_x="0 : 526.18109 : 1"
       inkscape:vp_y="0 : 1000 : 0"
       inkscape:vp_z="744.09448 : 526.18109 : 1"
       inkscape:persp3d-origin="372.04724 : 350.78739 : 1"
       id="perspective10" />
    <filter
       inkscape:collect="always"
       id="filter3644">
      <feGaussianBlur
         inkscape:collect="always"
         stdDeviation="0.276"
         id="feGaussianBlur3646" />
    </filter>
    <filter
       inkscape:collect="always"
       id="filter3656"
       x="-0.1012"
       width="1.2024"
       y="-0.1104"
       height="1.2208">
      <feGaussianBlur
         inkscape:collect="always"
         stdDeviation="0.50599998"
         id="feGaussianBlur3658" />
    </filter>
  </defs>
  <sodipodi:namedview
     id="base"
     pagecolor="#ffffff"
     bordercolor="#666666"
     borderopacity="1.0"
     inkscape:pageopacity="0.0"
     inkscape:pageshadow="2"
     inkscape:zoom="3.3228495"
     inkscape:cx="8.5191633"
     inkscape:cy="0.58478669"
     inkscape:document-units="px"
     inkscape:current-layer="layer1"
     showgrid="true"
     inkscape:window-width="1280"
     inkscape:window-height="753"
     inkscape:window-x="-3"
     inkscape:window-y="26"
     inkscape:window-maximized="1">
    <inkscape:grid
       type="xygrid"
       id="grid2822"
       empspacing="5"
       visible="true"
       enabled="true"
       snapvisiblegridlinesonly="true" />
  </sodipodi:namedview>
  <metadata
     id="metadata7">
    <rdf:RDF>
      <cc:Work
         rdf:about="">
        <dc:format>image/svg+xml</dc:format>
        <dc:type
           rdf:resource="http://purl.org/dc/dcmitype/StillImage" />
      </cc:Work>
    </rdf:RDF>
  </metadata>
  <g
     inkscape:label="Layer 1"
     inkscape:groupmode="layer"
     id="layer1"
     transform="translate(0,-1036.3622)">
    <path
       style="font-size:medium;font-style:normal;font-variant:normal;font-weight:normal;font-stretch:normal;text-indent:0;text-align:start;text-decoration:none;line-height:normal;letter-spacing:normal;word-spacing:normal;text-transform:none;direction:ltr;block-progression:tb;writing-mode:lr-tb;text-anchor:start;color:#000000;fill:#ffffff;fill-opacity:1;stroke:none;stroke-width:1px;marker:none;visibility:visible;display:inline;overflow:visible;enable-background:accumulate;font-family:Bitstream Vera Sans;-inkscape-font-specification:Bitstream Vera Sans;filter:url(#filter3656)"
       d="M 2 2.5 L 2 3.5 C 3.3611111 3.5 4.3441039 4.03155 5.21875 4.90625 C 5.6934238 5.3808988 6.1183986 5.966298 6.53125 6.59375 C 5.176798 7.6722017 3.7923302 8.5 2 8.5 L 2 9.5 C 4.0681399 9.5 5.6512927 8.5578683 7.0625 7.4375 C 7.2291987 7.7104104 7.3947961 7.9704936 7.5625 8.25 C 7.8433247 8.7180412 8.1381133 9.1646415 8.4375 9.625 C 6.7053649 11.1097 4.8333333 12.5 2 12.5 L 2 13.5 C 5.1173216 13.5 7.2172231 11.931676 8.96875 10.4375 C 9.3128448 10.911205 9.6907503 11.378232 10.09375 11.78125 C 11.094104 12.78155 12.361111 13.5 14 13.5 L 14 12.5 C 12.638889 12.5 11.655896 11.96835 10.78125 11.09375 C 10.411824 10.724301 10.077978 10.281207 9.75 9.8125 C 11.215408 8.5506792 12.480643 7.5 14 7.5 L 14 6.5 C 12.078771 6.5 10.643638 7.6949082 9.1875 8.96875 C 8.9358609 8.568272 8.6890558 8.1692597 8.4375 7.75 C 8.2417268 7.4237113 8.0470873 7.1062092 7.84375 6.78125 C 8.0008424 6.6477944 8.1576709 6.5077107 8.3125 6.375 C 10.0625 4.875 11.7 3.5 14 3.5 L 14 2.5 C 11.3 2.5 9.4375 4.125 7.6875 5.625 C 7.5625 5.7321429 7.4366345 5.8320882 7.3125 5.9375 C 6.8915407 5.3228367 6.4163274 4.7287999 5.90625 4.21875 C 4.9058961 3.21835 3.6388889 2.5 2 2.5 z "
       id="path3617"
       transform="translate(0,1036.3622)" />
    <path
       transform="translate(0,1036.3622)"
       id="path3660"
       d="M 2 2.5 L 2 3.5 C 3.3611111 3.5 4.3441039 4.03155 5.21875 4.90625 C 5.6934238 5.3808988 6.1183986 5.966298 6.53125 6.59375 C 5.176798 7.6722017 3.7923302 8.5 2 8.5 L 2 9.5 C 4.0681399 9.5 5.6512927 8.5578683 7.0625 7.4375 C 7.2291987 7.7104104 7.3947961 7.9704936 7.5625 8.25 C 7.8433247 8.7180412 8.1381133 9.1646415 8.4375 9.625 C 6.7053649 11.1097 4.8333333 12.5 2 12.5 L 2 13.5 C 5.1173216 13.5 7.2172231 11.931676 8.96875 10.4375 C 9.3128448 10.911205 9.6907503 11.378232 10.09375 11.78125 C 11.094104 12.78155 12.361111 13.5 14 13.5 L 14 12.5 C 12.638889 12.5 11.655896 11.96835 10.78125 11.09375 C 10.411824 10.724301 10.077978 10.281207 9.75 9.8125 C 11.215408 8.5506792 12.480643 7.5 14 7.5 L 14 6.5 C 12.078771 6.5 10.643638 7.6949082 9.1875 8.96875 C 8.9358609 8.568272 8.6890558 8.1692597 8.4375 7.75 C 8.2417268 7.4237113 8.0470873 7.1062092 7.84375 6.78125 C 8.0008424 6.6477944 8.1576709 6.5077107 8.3125 6.375 C 10.0625 4.875 11.7 3.5 14 3.5 L 14 2.5 C 11.3 2.5 9.4375 4.125 7.6875 5.625 C 7.5625 5.7321429 7.4366345 5.8320882 7.3125 5.9375 C 6.8915407 5.3228367 6.4163274 4.7287999 5.90625 4.21875 C 4.9058961 3.21835 3.6388889 2.5 2 2.5 z "
       style="font-size:medium;font-style:normal;font-variant:normal;font-weight:normal;font-stretch:normal;text-indent:0;text-align:start;text-decoration:none;line-height:normal;letter-spacing:normal;word-spacing:normal;text-transform:none;direction:ltr;block-progression:tb;writing-mode:lr-tb;text-anchor:start;color:#000000;fill:#ffffff;fill-opacity:1;stroke:none;stroke-width:1px;marker:none;visibility:visible;display:inline;overflow:visible;enable-background:accumulate;font-family:Bitstream Vera Sans;-inkscape-font-specification:Bitstream Vera Sans;filter:url(#filter3656)" />
    <path
       style="font-size:medium;font-style:normal;font-variant:normal;font-weight:normal;font-stretch:normal;text-indent:0;text-align:start;text-decoration:none;line-height:normal;letter-spacing:normal;word-spacing:normal;text-transform:none;direction:ltr;block-progression:tb;writing-mode:lr-tb;text-anchor:start;color:#000000;fill:#ffffff;fill-opacity:1;stroke:none;stroke-width:1px;marker:none;visibility:visible;display:inline;overflow:visible;enable-background:accumulate;font-family:Bitstream Vera Sans;-inkscape-font-specification:Bitstream Vera Sans;filter:url(#filter3656)"
       d="M 2 2.5 L 2 3.5 C 3.3611111 3.5 4.3441039 4.03155 5.21875 4.90625 C 5.6934238 5.3808988 6.1183986 5.966298 6.53125 6.59375 C 5.176798 7.6722017 3.7923302 8.5 2 8.5 L 2 9.5 C 4.0681399 9.5 5.6512927 8.5578683 7.0625 7.4375 C 7.2291987 7.7104104 7.3947961 7.9704936 7.5625 8.25 C 7.8433247 8.7180412 8.1381133 9.1646415 8.4375 9.625 C 6.7053649 11.1097 4.8333333 12.5 2 12.5 L 2 13.5 C 5.1173216 13.5 7.2172231 11.931676 8.96875 10.4375 C 9.3128448 10.911205 9.6907503 11.378232 10.09375 11.78125 C 11.094104 12.78155 12.361111 13.5 14 13.5 L 14 12.5 C 12.638889 12.5 11.655896 11.96835 10.78125 11.09375 C 10.411824 10.724301 10.077978 10.281207 9.75 9.8125 C 11.215408 8.5506792 12.480643 7.5 14 7.5 L 14 6.5 C 12.078771 6.5 10.643638 7.6949082 9.1875 8.96875 C 8.9358609 8.568272 8.6890558 8.1692597 8.4375 7.75 C 8.2417268 7.4237113 8.0470873 7.1062092 7.84375 6.78125 C 8.0008424 6.6477944 8.1576709 6.5077107 8.3125 6.375 C 10.0625 4.875 11.7 3.5 14 3.5 L 14 2.5 C 11.3 2.5 9.4375 4.125 7.6875 5.625 C 7.5625 5.7321429 7.4366345 5.8320882 7.3125 5.9375 C 6.8915407 5.3228367 6.4163274 4.7287999 5.90625 4.21875 C 4.9058961 3.21835 3.6388889 2.5 2 2.5 z "
       id="path3662"
       transform="translate(0,1036.3622)" />
    <path
       style="fill:none;stroke:#158300;stroke-width:1px;stroke-linecap:butt;stroke-linejoin:miter;stroke-opacity:1"
       d="M 2,3 C 8,3 8,13 14,13"
       id="path2816"
       transform="translate(0,1036.3622)"
       sodipodi:nodetypes="cc" />
    <path
       sodipodi:nodetypes="cc"
       transform="translate(0,1036.3622)"
       id="path2818"
       d="M 2,13 C 8,13 10,7 14,7"
       style="fill:none;stroke:#04008d;stroke-width:1px;stroke-linecap:butt;stroke-linejoin:miter;stroke-opacity:1" />
    <path
       style="fill:none;stroke:#820118;stroke-width:1px;stroke-linecap:butt;stroke-linejoin:miter;stroke-opacity:1"
       d="M 2,9 C 7,9 9,3 14,3"
       id="path2820"
       transform="translate(0,1036.3622)"
       sodipodi:nodetypes="cc" />
  </g>
</svg>
