<?xml version="1.0" encoding="UTF-8" standalone="no"?>
<!-- Created with Inkscape (http://www.inkscape.org/) -->
<svg
   xmlns:dc="http://purl.org/dc/elements/1.1/"
   xmlns:cc="http://creativecommons.org/ns#"
   xmlns:rdf="http://www.w3.org/1999/02/22-rdf-syntax-ns#"
   xmlns:svg="http://www.w3.org/2000/svg"
   xmlns="http://www.w3.org/2000/svg"
   xmlns:sodipodi="http://sodipodi.sourceforge.net/DTD/sodipodi-0.dtd"
   xmlns:inkscape="http://www.inkscape.org/namespaces/inkscape"
   width="16"
   height="16"
   id="svg2"
   sodipodi:version="0.32"
   inkscape:version="0.46"
   version="1.0"
   sodipodi:docname="midi-blue.svg"
   inkscape:output_extension="org.inkscape.output.svg.inkscape"
   inkscape:export-filename="/home/mcv/tmp/svn/haruhi/images/midi-blue.png"
   inkscape:export-xdpi="90"
   inkscape:export-ydpi="90">
  <defs
     id="defs4">
    <inkscape:perspective
       sodipodi:type="inkscape:persp3d"
       inkscape:vp_x="0 : 526.18109 : 1"
       inkscape:vp_y="0 : 1000 : 0"
       inkscape:vp_z="744.09448 : 526.18109 : 1"
       inkscape:persp3d-origin="372.04724 : 350.78739 : 1"
       id="perspective10" />
  </defs>
  <sodipodi:namedview
     id="base"
     pagecolor="#ffffff"
     bordercolor="#666666"
     borderopacity="1.0"
     gridtolerance="10000"
     guidetolerance="10"
     objecttolerance="10"
     inkscape:pageopacity="0.0"
     inkscape:pageshadow="2"
     inkscape:zoom="16"
     inkscape:cx="1.7704323"
     inkscape:cy="10.878209"
     inkscape:document-units="px"
     inkscape:current-layer="layer1"
     showgrid="true"
     inkscape:window-width="1272"
     inkscape:window-height="749"
     inkscape:window-x="0"
     inkscape:window-y="25">
    <inkscape:grid
       type="xygrid"
       id="grid2383"
       visible="true"
       enabled="false"
       spacingx="0.25px"
       spacingy="0.25px" />
  </sodipodi:namedview>
  <metadata
     id="metadata7">
    <rdf:RDF>
      <cc:Work
         rdf:about="">
        <dc:format>image/svg+xml</dc:format>
        <dc:type
           rdf:resource="http://purl.org/dc/dcmitype/StillImage" />
      </cc:Work>
    </rdf:RDF>
  </metadata>
  <g
     inkscape:label="Layer 1"
     inkscape:groupmode="layer"
     id="layer1">
    <path
       style="fill:#ffffff;fill-opacity:1;stroke:#0000ff;stroke-width:0.68122797999999996;stroke-linecap:round;stroke-linejoin:round;stroke-miterlimit:4;stroke-dasharray:none;stroke-dashoffset:0;stroke-opacity:1"
       d="M 8.0000008,2.1723083 C 4.7096696,2.1723083 2.0392561,4.842722 2.0392561,8.133053 C 2.0392561,10.797583 3.7769854,13.065164 6.190489,13.827693 L 6.3235414,13.561589 L 6.9621925,12.47056 C 6.9972229,12.401694 7.0807349,12.356606 7.1484659,12.337507 C 7.1618446,12.336309 7.1616974,12.336309 7.1750763,12.337507 L 8.7717043,12.337507 C 8.8613816,12.336272 8.9635564,12.383837 9.0111986,12.47056 L 9.6498497,13.561589 C 9.7868882,13.817055 9.7448675,13.750124 9.7829021,13.827693 C 12.208843,13.072622 13.960745,10.806447 13.960745,8.133053 C 13.960745,4.8427218 11.290332,2.1723083 8.0000008,2.1723083 z"
       id="path2389" />
    <path
       sodipodi:type="arc"
       style="fill:#0000ff;fill-opacity:1;stroke:none;stroke-width:0.80000000999999998;stroke-linecap:round;stroke-linejoin:round;stroke-miterlimit:4;stroke-dasharray:none;stroke-dashoffset:0;stroke-opacity:1"
       id="path3194"
       sodipodi:cx="5.75"
       sodipodi:cy="7.25"
       sodipodi:rx="0.75"
       sodipodi:ry="0.75"
       d="M 6.5,7.25 A 0.75,0.75 0 1 1 5,7.25 A 0.75,0.75 0 1 1 6.5,7.25 z"
       transform="matrix(0.8515349,0,0,0.8515349,3.1036748,-1.2338316)" />
    <path
       transform="matrix(0.8515349,0,0,0.8515349,5.8711634,-0.1694128)"
       d="M 6.5,7.25 A 0.75,0.75 0 1 1 5,7.25 A 0.75,0.75 0 1 1 6.5,7.25 z"
       sodipodi:ry="0.75"
       sodipodi:rx="0.75"
       sodipodi:cy="7.25"
       sodipodi:cx="5.75"
       id="path3196"
       style="fill:#0000ff;fill-opacity:1;stroke:none;stroke-width:0.80000000999999998;stroke-linecap:round;stroke-linejoin:round;stroke-miterlimit:4;stroke-dasharray:none;stroke-dashoffset:0;stroke-opacity:1"
       sodipodi:type="arc" />
    <path
       sodipodi:type="arc"
       style="fill:#0000ff;fill-opacity:1;stroke:none;stroke-width:0.80000000999999998;stroke-linecap:round;stroke-linejoin:round;stroke-miterlimit:4;stroke-dasharray:none;stroke-dashoffset:0;stroke-opacity:1"
       id="path3198"
       sodipodi:cx="5.75"
       sodipodi:cy="7.25"
       sodipodi:rx="0.75"
       sodipodi:ry="0.75"
       d="M 6.5,7.25 A 0.75,0.75 0 1 1 5,7.25 A 0.75,0.75 0 1 1 6.5,7.25 z"
       transform="matrix(0.8515349,0,0,0.8515349,0.3361862,-0.1694128)" />
    <path
       sodipodi:type="arc"
       style="fill:#0000ff;fill-opacity:1;stroke:none;stroke-width:0.80000000999999998;stroke-linecap:round;stroke-linejoin:round;stroke-miterlimit:4;stroke-dasharray:none;stroke-dashoffset:0;stroke-opacity:1"
       id="path3200"
       sodipodi:cx="5.75"
       sodipodi:cy="7.25"
       sodipodi:rx="0.75"
       sodipodi:ry="0.75"
       d="M 6.5,7.25 A 0.75,0.75 0 1 1 5,7.25 A 0.75,0.75 0 1 1 6.5,7.25 z"
       transform="matrix(0.8515349,0,0,0.8515349,6.7226984,2.385192)" />
    <path
       transform="matrix(0.8515349,0,0,0.8515349,-0.5153487,2.385192)"
       d="M 6.5,7.25 A 0.75,0.75 0 1 1 5,7.25 A 0.75,0.75 0 1 1 6.5,7.25 z"
       sodipodi:ry="0.75"
       sodipodi:rx="0.75"
       sodipodi:cy="7.25"
       sodipodi:cx="5.75"
       id="path3202"
       style="fill:#0000ff;fill-opacity:1;stroke:none;stroke-width:0.80000000999999998;stroke-linecap:round;stroke-linejoin:round;stroke-miterlimit:4;stroke-dasharray:none;stroke-dashoffset:0;stroke-opacity:1"
       sodipodi:type="arc" />
  </g>
</svg>
