<?xml version="1.0" encoding="UTF-8" standalone="no"?>
<!-- Created with Inkscape (http://www.inkscape.org/) -->

<svg
   xmlns:dc="http://purl.org/dc/elements/1.1/"
   xmlns:cc="http://creativecommons.org/ns#"
   xmlns:rdf="http://www.w3.org/1999/02/22-rdf-syntax-ns#"
   xmlns:svg="http://www.w3.org/2000/svg"
   xmlns="http://www.w3.org/2000/svg"
   xmlns:sodipodi="http://sodipodi.sourceforge.net/DTD/sodipodi-0.dtd"
   xmlns:inkscape="http://www.inkscape.org/namespaces/inkscape"
   width="63.561146"
   height="35.433071"
   id="svg2"
   version="1.1"
   inkscape:version="0.48.4 r9939"
   sodipodi:docname="Nowy dokument 1">
  <defs
     id="defs4" />
  <sodipodi:namedview
     id="base"
     pagecolor="#ffffff"
     bordercolor="#666666"
     borderopacity="1.0"
     inkscape:pageopacity="0.0"
     inkscape:pageshadow="2"
     inkscape:zoom="11.2"
     inkscape:cx="15.125139"
     inkscape:cy="3.366435"
     inkscape:document-units="px"
     inkscape:current-layer="layer1"
     showgrid="false"
     fit-margin-top="0"
     fit-margin-left="0"
     fit-margin-right="0"
     fit-margin-bottom="0"
     showguides="true"
     inkscape:guide-bbox="true"
     units="mm"
     inkscape:window-width="1914"
     inkscape:window-height="1030"
     inkscape:window-x="0"
     inkscape:window-y="26"
     inkscape:window-maximized="1" />
  <metadata
     id="metadata7">
    <rdf:RDF>
      <cc:Work
         rdf:about="">
        <dc:format>image/svg+xml</dc:format>
        <dc:type
           rdf:resource="http://purl.org/dc/dcmitype/StillImage" />
        <dc:title></dc:title>
      </cc:Work>
    </rdf:RDF>
  </metadata>
  <g
     inkscape:label="Layer 1"
     inkscape:groupmode="layer"
     id="layer1"
     transform="translate(-517.07115,-658.14748)">
    <path
       style="fill:#000000;fill-opacity:1;stroke:none"
       d="m 549.35416,658.2251 c -8.64237,-0.0743 -17.30681,1.80507 -23.68406,5.58909 -12.00421,7.12286 -11.36314,18.30889 1.44154,24.98648 12.80467,6.6776 32.9234,6.31358 44.92762,-0.80927 12.00423,-7.12287 11.3505,-18.30889 -1.45417,-24.98649 -6.00221,-3.13013 -13.60532,-4.7143 -21.23093,-4.77981 z m -4.02111,3.37622 c 1.05797,-0.0183 2.16614,0.10239 3.31299,0.39199 7.33981,1.85355 13.36953,9.60196 13.4669,17.29834 0.0974,7.69638 -5.77304,12.42474 -13.11285,10.57121 -7.33979,-1.85355 -13.36953,-9.58932 -13.4669,-17.28569 -0.0821,-6.49383 4.08684,-10.87694 9.79986,-10.97585 z"
       id="path3015"
       inkscape:connector-curvature="0" />
  </g>
</svg>
